FILE "Tomb Raider II - Starring Lara Croft (USA) - [The Golden Mask v20230730 by b122251].bin" BINARY
  TRACK 01 MODE2/2352
    INDEX 01 00:00:00
  TRACK 02 AUDIO
    PREGAP 00:02:00
    INDEX 01 14:39:11
  TRACK 03 AUDIO
    INDEX 00 14:53:12
    INDEX 01 14:55:12
  TRACK 04 AUDIO
    INDEX 00 15:09:13
    INDEX 01 15:11:13
  TRACK 05 AUDIO
    INDEX 00 15:25:14
    INDEX 01 15:27:14
  TRACK 06 AUDIO
    INDEX 00 15:37:00
    INDEX 01 15:39:00
  TRACK 07 AUDIO
    INDEX 00 15:47:73
    INDEX 01 15:49:73
  TRACK 08 AUDIO
    INDEX 00 15:57:00
    INDEX 01 15:59:00
  TRACK 09 AUDIO
    INDEX 00 16:06:04
    INDEX 01 16:08:04
  TRACK 10 AUDIO
    INDEX 00 16:16:05
    INDEX 01 16:18:05
  TRACK 11 AUDIO
    INDEX 00 16:31:31
    INDEX 01 16:33:31
  TRACK 12 AUDIO
    INDEX 00 16:51:17
    INDEX 01 16:53:17
  TRACK 13 AUDIO
    INDEX 00 17:03:56
    INDEX 01 17:05:56
  TRACK 14 AUDIO
    INDEX 00 17:16:66
    INDEX 01 17:18:66
  TRACK 15 AUDIO
    INDEX 00 17:25:68
    INDEX 01 17:27:68
  TRACK 16 AUDIO
    INDEX 00 17:34:70
    INDEX 01 17:36:70
  TRACK 17 AUDIO
    INDEX 00 17:43:73
    INDEX 01 17:45:73
  TRACK 18 AUDIO
    INDEX 00 17:57:02
    INDEX 01 17:59:02
  TRACK 19 AUDIO
    INDEX 00 18:06:04
    INDEX 01 18:08:04
  TRACK 20 AUDIO
    INDEX 00 18:15:06
    INDEX 01 18:17:06
  TRACK 21 AUDIO
    INDEX 00 18:24:08
    INDEX 01 18:26:08
  TRACK 22 AUDIO
    INDEX 00 18:33:10
    INDEX 01 18:35:10
  TRACK 23 AUDIO
    INDEX 00 18:42:12
    INDEX 01 18:44:12
  TRACK 24 AUDIO
    INDEX 00 18:58:13
    INDEX 01 19:00:13
  TRACK 25 AUDIO
    INDEX 00 19:14:14
    INDEX 01 19:16:14
  TRACK 26 AUDIO
    INDEX 00 19:23:16
    INDEX 01 19:25:16
  TRACK 27 AUDIO
    INDEX 00 19:39:17
    INDEX 01 19:41:17
  TRACK 28 AUDIO
    INDEX 00 21:43:32
    INDEX 01 21:45:32
  TRACK 29 AUDIO
    INDEX 00 21:59:33
    INDEX 01 22:01:33
  TRACK 30 AUDIO
    INDEX 00 24:32:71
    INDEX 01 24:34:71
  TRACK 31 AUDIO
    INDEX 00 27:42:60
    INDEX 01 27:44:60
  TRACK 32 AUDIO
    INDEX 00 27:56:46
    INDEX 01 27:58:46
  TRACK 33 AUDIO
    INDEX 00 28:07:23
    INDEX 01 28:09:23
  TRACK 34 AUDIO
    INDEX 00 28:29:62
    INDEX 01 28:31:62
  TRACK 35 AUDIO
    INDEX 00 29:30:25
    INDEX 01 29:32:25
  TRACK 36 AUDIO
    INDEX 00 29:56:20
    INDEX 01 29:58:20
  TRACK 37 AUDIO
    INDEX 00 32:41:18
    INDEX 01 32:43:18
  TRACK 38 AUDIO
    INDEX 00 32:59:35
    INDEX 01 33:01:35
  TRACK 39 AUDIO
    INDEX 00 33:16:71
    INDEX 01 33:18:71
  TRACK 40 AUDIO
    INDEX 00 33:37:63
    INDEX 01 33:39:63
  TRACK 41 AUDIO
    INDEX 00 34:01:55
    INDEX 01 34:03:55
  TRACK 42 AUDIO
    INDEX 00 35:06:65
    INDEX 01 35:08:65
  TRACK 43 AUDIO
    INDEX 00 35:46:24
    INDEX 01 35:48:24
  TRACK 44 AUDIO
    INDEX 00 35:56:57
    INDEX 01 35:58:57
  TRACK 45 AUDIO
    INDEX 00 36:16:60
    INDEX 01 36:18:60
  TRACK 46 AUDIO
    INDEX 00 36:32:62
    INDEX 01 36:34:62
  TRACK 47 AUDIO
    INDEX 00 36:51:18
    INDEX 01 36:53:18
  TRACK 48 AUDIO
    INDEX 00 37:05:55
    INDEX 01 37:07:55
  TRACK 49 AUDIO
    INDEX 00 39:54:67
    INDEX 01 39:56:67
  TRACK 50 AUDIO
    INDEX 00 41:12:21
    INDEX 01 41:14:21
  TRACK 51 AUDIO
    INDEX 00 41:25:72
    INDEX 01 41:27:72
  TRACK 52 AUDIO
    INDEX 00 42:14:09
    INDEX 01 42:16:09
  TRACK 53 AUDIO
    INDEX 00 42:29:73
    INDEX 01 42:31:73
  TRACK 54 AUDIO
    INDEX 00 43:25:08
    INDEX 01 43:27:08
  TRACK 55 AUDIO
    INDEX 00 46:32:59
    INDEX 01 46:34:59
  TRACK 56 AUDIO
    INDEX 00 50:08:45
    INDEX 01 50:10:45
  TRACK 57 AUDIO
    INDEX 00 52:00:27
    INDEX 01 52:02:27
  TRACK 58 AUDIO
    INDEX 00 52:30:01
    INDEX 01 52:32:01
  TRACK 59 AUDIO
    INDEX 00 52:46:02
    INDEX 01 52:48:02
  TRACK 60 AUDIO
    INDEX 00 53:09:60
    INDEX 01 53:11:60
  TRACK 61 AUDIO
    INDEX 00 54:59:22
    INDEX 01 55:01:22
